<?xml version="1.0"?>
<svg version="1.1" xmlns="http://www.w3.org/2000/svg" xmlns:xlink="http://www.w3.org/1999/xlink" width="100" height="100">
    <desc iVinci="yes" version="4.5" gridStep="5" showGrid="yes" snapToGrid="yes" codePlatform="0"/>
    <g id="Layer1" opacity="1">
        <g id="Shape1">
            <desc shapeID="1" type="0" basicInfo-basicType="0" basicInfo-roundedRectRadius="12" basicInfo-polygonSides="6" basicInfo-starPoints="5" bounding="rect(-39.5,-40,79,80)" text="" font-familyName="Helvetica" font-pixelSize="20" font-bold="0" font-underline="0" font-alignment="1" strokeStyle="0" markerStart="0" markerEnd="0" shadowEnabled="0" shadowOffsetX="0" shadowOffsetY="2" shadowBlur="4" shadowOpacity="160" blurEnabled="0" blurRadius="4" transform="matrix(1,0,0,1,50.5,50.5)" pers-center="0,0" pers-size="0,0" pers-start="0,0" pers-end="0,0" locked="0" mesh="" flag=""/>
            <path id="shapePath1" d="M15.5,50.5 C15.5,49.5 15.5,48.5 15.5,47.5 L11,45 C11,44 11,43 11.5,42 L16.5,41 C17,39.5 18,38 18.5,36 L15,32 C15.5,31 16,30 17,29 L22,30 C23,28.5 24.5,27 25.5,26 L23.5,21 C24.5,20.5 25,19.5 26,19 L30.5,22 C32,20.5 33.5,20 35.5,19 L35,13.5 C36.5,13 37.5,12.5 38.5,12.5 L42,16.5 C43.5,16 45.5,16 47,15.5 L49,10.5 C49.5,10.5 50,10.5 50.5,10.5 C51,10.5 51.5,10.5 52,10.5 L54,15.5 C55.5,16 57.5,16 59,16.5 L62.5,12.5 C63.5,12.5 64.5,13 66,13.5 L65.5,19 C67.5,20 69,20.5 70.5,22 L75,19 C76,19.5 76.5,20.5 77.5,21 L75.5,26 C76.5,27 78,28.5 79,30 L84,29 C85,30 85.5,31 86,32 L82.5,36 C83,38 84,39.5 84.5,41 L89.5,42 C90,43 90,44 90,45 L85.5,47.5 C85.5,48.5 85.5,49.5 85.5,50.5 C85.5,51.5 85.5,52.5 85.5,53.5 L90,56 C90,57 90,58 89.5,59 L84.5,60 C84,61.5 83,63 82.5,65 L86,69 C85.5,70 85,71 84,72 L79,71 C78,72.5 76.5,74 75.5,75 L77.5,80 C76.5,80.5 76,81.5 75,82 L70.5,79 C69,80.5 67.5,81 65.5,82 L66,87.5 C64.5,88 63.5,88.5 62.5,88.5 L59,84.5 C57.5,85 55.5,85 54,85.5 L52,90.5 C51.5,90.5 51,90.5 50.5,90.5 C50,90.5 49.5,90.5 49,90.5 L47,85.5 C45.5,85 43.5,85 42,84.5 L38.5,88.5 C37.5,88.5 36.5,88 35,87.5 L35.5,82 C33.5,81 32,80.5 30.5,79 L26,82 C25,81.5 24.5,80.5 23.5,80 L25.5,75 C24.5,74 23,72.5 22,71 L17,72 C16,71 15.5,70 15,69 L18.5,65 C18,63 17,61.5 16.5,60 L11.5,59 C11,58 11,57 11,56 L15.5,53.5 C15.5,52.5 15.5,51.5 15.5,50.5 M20.5,50.5 C20.5,34 34,20.5 50.5,20.5 C67,20.5 80.5,34 80.5,50.5 C80.5,67 67,80.5 50.5,80.5 C34,80.5 20.5,67 20.5,50.5 Z" style="stroke:#000000;stroke-opacity:1;stroke-width:1;stroke-linejoin:miter;stroke-miterlimit:2;stroke-linecap:round;fill-rule:evenodd;fill:#000000;fill-opacity:1;"/>
        </g>
    </g>
    <g id="Layer2" opacity="1">
        <g id="Shape2">
            <desc shapeID="2" type="0" basicInfo-basicType="0" basicInfo-roundedRectRadius="12" basicInfo-polygonSides="6" basicInfo-starPoints="5" bounding="rect(-27,-30,54,60)" text="" font-familyName="Helvetica" font-pixelSize="20" font-bold="0" font-underline="0" font-alignment="1" strokeStyle="0" markerStart="0" markerEnd="0" shadowEnabled="0" shadowOffsetX="0" shadowOffsetY="2" shadowBlur="4" shadowOpacity="160" blurEnabled="0" blurRadius="4" transform="matrix(1,0,0,1,50.5,50.5)" pers-center="0,0" pers-size="0,0" pers-start="0,0" pers-end="0,0" locked="0" mesh="" flag=""/>
            <path id="shapePath2" d="M48.5,20.5 L52.5,20.5 L52.5,42.5 C54,43 55,44 56,45 L75.5,34 L77.5,37 L58,48 C58.5,49 58.5,49.5 58.5,50.5 C58.5,51.5 58.5,52.5 58,53.5 C66,59 76,66 76,66 L74,69.5 L55.5,56.5 C54.5,57.5 53.5,58 52.5,58.5 L52.5,80.5 L48.5,80.5 L48.5,58.5 C47,58 46,57 45,56 L25.5,67 L23.5,64 L43,53 C42.5,52 42.5,51.5 42.5,50.5 C42.5,49.5 42.5,48.5 43,47.5 L25,35 L27,31.5 L45.5,44.5 C46.5,43.5 47.5,43 48.5,42.5 L48.5,20.5 M47.5,50.5 C47.5,49 49,47.5 50.5,47.5 C52,47.5 53.5,49 53.5,50.5 C53.5,52 52,53.5 50.5,53.5 C49,53.5 47.5,52 47.5,50.5 Z" style="stroke:#000000;stroke-opacity:1;stroke-width:1;stroke-linejoin:miter;stroke-miterlimit:2;stroke-linecap:round;fill-rule:evenodd;fill:#000000;fill-opacity:1;"/>
        </g>
    </g>
</svg>
